<svg width="189" height="218" viewBox="0 0 189 218" version="1.1" xmlns="http://www.w3.org/2000/svg" xmlns:xlink="http://www.w3.org/1999/xlink"><defs><path id="path-1" d="M149.937 14.67h-109.5l-54.75 94.83 54.75 94.83h109.5l54.75-94.83z"/><radialGradient cx="100%" cy="50%" fx="100%" fy="50%" r="100%" id="radialGradient-3"><stop stop-color="#05B693" offset="0%"/><stop stop-color="#027F5A" offset="100%"/></radialGradient></defs><g id="Page-1" stroke="none" stroke-width="1" fill="none" fill-rule="evenodd"><g id="Home" transform="translate(-1190 -1608)"><g id="Group-11" transform="translate(1190 1605)"><g id="Group-45" transform="rotate(-90 110.5 110)" stroke="#027F5A"><path id="Stroke-1" d="M162.76.5H54.638L.578 94.136l54.06 93.636H162.76l54.061-93.636z"/><path id="Stroke-3" d="M158.046 3.214H53.066L.577 94.129l52.49 90.914h104.979l52.489-90.914z"/><path id="Stroke-5" d="M153.332 5.928H51.496L.578 94.12l50.918 88.193h101.836L204.25 94.12z"/><path id="Stroke-7" d="M148.617 8.643H49.924L.577 94.113l49.347 85.472h98.693l49.347-85.471z"/><path id="Stroke-9" d="M143.903 11.357h-95.55L.577 94.105l47.776 82.75h95.55l47.775-82.75z"/><path id="Stroke-11" d="M139.19 14.07H46.78L.577 94.099l46.204 80.028h92.408l46.203-80.028z"/><path id="Stroke-13" d="M134.474 16.785H45.21L.577 94.091l44.632 77.305h89.265l44.633-77.305z"/><path id="Stroke-15" d="M129.76 19.5H43.638L.578 94.083l43.06 74.584h86.122l43.061-74.584z"/><path id="Stroke-17" d="M125.046 22.214h-82.98L.577 94.076l41.49 71.862h82.979l41.489-71.862z"/><path id="Stroke-19" d="M120.332 24.928H40.496L.578 94.068l39.918 69.14h79.836l39.918-69.14z"/><path id="Stroke-21" d="M115.617 27.643H38.924L.577 94.06l38.347 66.418h76.693l38.347-66.418z"/><path id="Stroke-23" d="M110.903 30.357h-73.55L.577 94.053l36.776 63.696h73.55l36.775-63.697z"/><path id="Stroke-25" d="M106.189 33.07H35.78L.578 94.047 35.78 155.02h70.408l35.204-60.974z"/><path id="Stroke-27" d="M101.474 35.785H34.21L.577 94.038 34.21 152.29h67.265l33.633-58.252z"/><path id="Stroke-29" d="M96.76 38.5H32.638L.577 94.03l32.06 55.533H96.76l32.06-55.532z"/><path id="Stroke-31" d="M92.046 41.214h-60.98L.579 94.023l30.489 52.81h60.978l30.49-52.81z"/><path id="Stroke-33" d="M87.332 43.928H29.496L.578 94.015l28.918 50.088h57.836l28.918-50.088z"/><path id="Stroke-35" d="M82.617 46.643H27.924L.577 94.009l27.347 47.365h54.693l27.346-47.365z"/><path id="Stroke-37" d="M77.903 49.356h-51.55L.577 94.001l25.776 44.643h51.55L103.678 94z"/><path id="Stroke-39" d="M73.189 52.07H24.78L.578 93.994l24.203 41.923h48.408l24.204-41.923z"/><path id="Stroke-41" d="M68.474 54.785H23.21L.577 93.985l22.632 39.201h45.265l22.632-39.2z"/><path id="Stroke-43" d="M63.76 57.5H21.638L.577 93.979l21.06 36.478H63.76l21.06-36.478z"/></g><g id="Oval-3-Copy" transform="translate(0 .5)"><mask id="mask-2" fill="#fff"><use xlink:href="#path-1"/></mask><circle fill="url(#radialGradient-3)" fill-rule="nonzero" mask="url(#mask-2)" cx="95" cy="125" r="35"/><circle id="Oval-3-Copy-5" fill="url(#radialGradient-3)" fill-rule="nonzero" mask="url(#mask-2)" cx="96" cy="229" r="63"/></g></g></g></g></svg>