<svg width="291" height="68" viewBox="0 0 291 68" version="1.1" xmlns="http://www.w3.org/2000/svg"><defs><radialGradient cx="100.011%" cy="49.988%" fx="100.011%" fy="49.988%" r="112.501%" gradientTransform="matrix(0 .88888 -1 0 1.5 -.39)" id="radialGradient-1"><stop stop-color="#05B693" offset="0%"/><stop stop-color="#027F5A" offset="100%"/></radialGradient></defs><g id="Page-1" stroke="none" stroke-width="1" fill="none" fill-rule="evenodd"><g id="logo" fill-rule="nonzero"><g id="Group"><g transform="translate(155.974 47.998)" fill="#000"><path d="M.797 9.883V7.32c.032.007.086.013.163.02a5.444 5.444 0 0 0 .466.019h.158c.333 0 .656-.039.97-.116.313-.077.592-.204.835-.38a1.96 1.96 0 0 0 .586-.689c.147-.282.22-.63.22-1.04 0-.417-.078-.76-.235-1.03a1.786 1.786 0 0 0-.61-.636 2.43 2.43 0 0 0-.83-.318 4.8 4.8 0 0 0-.898-.087c-.275 0-.553.01-.835.03A4.682 4.682 0 0 0 0 3.208v6.674h.797zm.749-3.236h-.154c-.07 0-.144-.002-.22-.005l-.222-.01a.508.508 0 0 1-.153-.024V3.815c.09-.025.211-.041.365-.048.153-.006.313-.01.48-.01.204 0 .41.023.614.068.205.045.389.12.552.226.163.106.294.248.394.424.099.177.148.397.148.66 0 .308-.052.562-.158.76a1.195 1.195 0 0 1-.418.463c-.172.11-.366.185-.58.226-.215.042-.43.063-.648.063zM6.029 9.96a1.967 1.967 0 0 0 .97-.236 1.39 1.39 0 0 0 .312-.231c.086-.087.158-.175.216-.265h.048l.201.674h.567a3.198 3.198 0 0 1-.106-.587 7.482 7.482 0 0 1-.029-.674c0-.328.01-.675.029-1.04.02-.367.029-.742.029-1.127 0-.174-.018-.347-.053-.52a1.206 1.206 0 0 0-.211-.477 1.118 1.118 0 0 0-.461-.352c-.202-.09-.469-.135-.802-.135-.352 0-.69.036-1.012.106a2.76 2.76 0 0 0-.85.328l.24.578c.09-.052.194-.098.312-.14a3.14 3.14 0 0 1 .374-.106c.132-.029.26-.051.384-.067a2.77 2.77 0 0 1 .35-.024c.372 0 .628.07.769.211.14.142.211.389.211.742 0 .154-.01.328-.029.52a1.86 1.86 0 0 0-.264-.02H6.96c-.352 0-.673.025-.965.073a2.39 2.39 0 0 0-.748.24 1.25 1.25 0 0 0-.485.454c-.115.189-.173.425-.173.707 0 .212.037.402.11.569a1.283 1.283 0 0 0 .759.703c.176.064.366.096.571.096zm.211-.674a.882.882 0 0 1-.614-.217.713.713 0 0 1-.24-.554c0-.16.043-.293.13-.4a.877.877 0 0 1 .345-.25c.144-.06.31-.102.5-.125.188-.022.382-.034.58-.034a7.915 7.915 0 0 1 .547.02v.799a1.164 1.164 0 0 1-.403.506 1.387 1.387 0 0 1-.365.183c-.14.048-.3.072-.48.072zm4.243.597v-3.37a.986.986 0 0 1 .298-.574c.16-.15.378-.226.653-.226.173 0 .355.032.547.096l.163-.742a2.348 2.348 0 0 0-.624-.096c-.262 0-.478.06-.648.178a1.5 1.5 0 0 0-.437.506h-.038l-.144-.588h-.538v4.816h.768zm3.965.116a2.82 2.82 0 0 0 1.229-.28l-.173-.587c-.14.058-.268.104-.384.14a1.457 1.457 0 0 1-.422.052c-.198 0-.34-.069-.422-.207-.084-.138-.125-.374-.125-.708V5.742h1.305v-.675h-1.305V3.893l-.768.221v.953h-.75v.675h.75v2.812c0 .52.08.89.24 1.112.16.222.435.333.825.333zm6.471 0c.678 0 1.198-.217 1.56-.65.362-.434.542-1.058.542-1.874 0-.379-.041-.724-.124-1.035a2.21 2.21 0 0 0-.384-.8 1.699 1.699 0 0 0-.658-.51 2.276 2.276 0 0 0-.936-.178c-.678 0-1.198.217-1.56.65-.362.433-.542 1.058-.542 1.873 0 .379.041.724.124 1.036.084.31.212.577.384.799.173.221.392.392.658.51.266.12.578.179.936.179zm0-.675a1.13 1.13 0 0 1-.605-.154 1.216 1.216 0 0 1-.403-.404 1.857 1.857 0 0 1-.226-.588 3.358 3.358 0 0 1-.072-.703c0-1.239.436-1.855 1.306-1.849.237 0 .438.05.605.15.166.099.3.232.403.399.102.167.178.363.226.588.048.224.072.462.072.712 0 1.24-.436 1.856-1.306 1.85zm4.186.559V5.742h1.277v-.675h-1.277v-.134c0-.193.004-.361.014-.506a1.15 1.15 0 0 1 .077-.366.449.449 0 0 1 .201-.226.81.81 0 0 1 .39-.077c.115 0 .238.01.369.029.131.019.27.06.418.125l.172-.645a2.291 2.291 0 0 0-.494-.145 3.388 3.388 0 0 0-.543-.038c-.256 0-.47.033-.643.1a.98.98 0 0 0-.422.309 1.304 1.304 0 0 0-.235.534 3.624 3.624 0 0 0-.072.77v.27h-.75v.675h.75v4.14h.768z" id="Shape"/></g><path d="M82.128 29.8h2.697c-.823 3.555-3.578 6.045-8.036 6.045-6.05 0-9.372-4.422-9.372-10.355 0-5.933 3.379-10.356 9.4-10.356 4.118 0 6.958 2.155 7.782 5.597H81.9c-.767-2.126-2.271-3.301-5.084-3.301-4.714 0-6.815 3.833-6.815 8.06 0 4.254 2.072 8.06 6.788 8.06 2.84 0 4.685-1.427 5.34-3.75zm12.326-8.79c4.458 0 7.043 3.247 7.043 7.417s-2.585 7.417-7.043 7.417c-4.487 0-7.043-3.246-7.043-7.417 0-4.17 2.556-7.416 7.043-7.416zm0 12.764c3.152 0 4.63-2.576 4.63-5.347 0-2.77-1.478-5.345-4.63-5.345-3.182 0-4.63 2.576-4.63 5.345 0 2.771 1.448 5.347 4.63 5.347zm23.26 1.706h-2.415v-8.45c0-2.604-1.22-3.891-3.635-3.891-2.556 0-4.26 2.21-4.26 4.702v7.64h-2.414V21.374h2.33v1.512h.623c.797-1.092 2.388-1.875 4.318-1.875 3.522 0 5.453 2.127 5.453 5.513v8.956zm7.015 0l-4.743-14.106h2.5l4.003 11.868h1.165l3.864-11.868h2.526l-4.8 14.106h-4.515zm24.169-7.892v.812H137.99c.086 3.358 1.62 5.374 4.574 5.374 2.016 0 3.21-.84 3.635-2.184h2.442c-.454 2.408-2.527 4.254-6.077 4.254-4.459 0-6.958-3.218-6.958-7.556 0-4.34 2.556-7.277 6.9-7.277 4.26 0 6.306 3.106 6.39 6.577zm-6.447-4.507c-2.585 0-4.004 1.54-4.317 3.331h8.264c-.141-1.79-1.533-3.33-3.947-3.33zm18.091-1.707v2.239h-1.192c-2.84 0-4.573 1.708-4.573 4.814v7.053h-2.414V21.374h2.328v1.68h.626c.71-.867 2.073-1.68 4.146-1.68h1.08zm13.349 0h2.328v13.407c0 3.947-2.499 6.494-6.674 6.494-3.663 0-6.049-1.512-6.475-4.31h2.386c.426 1.678 1.902 2.294 4.061 2.294 2.953 0 4.289-1.764 4.289-4.59v-1.12h-.625c-.767.98-2.13 1.876-4.289 1.876-3.947 0-6.362-3.079-6.362-7.194 0-4.141 2.415-7.22 6.362-7.22 2.244 0 3.607.895 4.374 1.875h.624v-1.512zm-4.544 11.98c3.067 0 4.515-2.435 4.515-5.122 0-2.715-1.448-5.15-4.515-5.15-2.813 0-4.402 2.043-4.402 5.15 0 3.051 1.59 5.122 4.402 5.122zm13.802-15.646h-2.556v-2.576h2.556v2.576zm-.085 3.666V35.48h-2.414V21.374h2.414zm17.183 14.106h-2.414v-8.45c0-2.604-1.222-3.891-3.636-3.891-2.556 0-4.26 2.21-4.26 4.702v7.64h-2.414V21.374h2.328v1.512h.625c.796-1.092 2.387-1.875 4.317-1.875 3.522 0 5.454 2.127 5.454 5.513v8.956zm14.626-14.106h2.328v13.407c0 3.947-2.498 6.494-6.674 6.494-3.663 0-6.048-1.512-6.474-4.31h2.385c.426 1.678 1.902 2.294 4.062 2.294 2.953 0 4.288-1.764 4.288-4.59v-1.12h-.624c-.768.98-2.131 1.876-4.29 1.876-3.947 0-6.361-3.079-6.361-7.194 0-4.141 2.414-7.22 6.361-7.22 2.244 0 3.607.895 4.374 1.875h.624v-1.512h.001zm-4.544 11.98c3.067 0 4.515-2.435 4.515-5.122 0-2.715-1.448-5.15-4.515-5.15-2.812 0-4.402 2.043-4.402 5.15 0 3.051 1.59 5.122 4.402 5.122zm19.114-17.857h7.583c6.219 0 9.371 3.974 9.371 9.992 0 5.99-3.152 9.991-9.371 9.991h-7.583V15.497zm2.556 17.688h5.027c4.913 0 6.788-3.526 6.788-7.697 0-4.17-1.875-7.697-6.788-7.697h-5.027v15.394zm27.122 2.295v-1.482h-.624c-.881 1.091-2.415 1.846-4.46 1.846-3.294 0-5.14-2.182-5.14-4.59 0-2.267 1.505-4.673 5.481-4.673h4.658v-.56c0-1.708-.993-2.939-3.493-2.939-2.13 0-3.21.812-3.323 2.043h-2.414c.198-2.603 2.47-4.114 5.68-4.114 3.607 0 5.908 1.708 5.908 4.87v9.6h-2.273zm-4.487-1.706c2.385 0 4.402-1.764 4.402-4.002v-1.288h-4.29c-2.356 0-3.435 1.007-3.435 2.686 0 1.595 1.193 2.604 3.323 2.604zm14.229-12.4h3.606v2.072h-3.606v7.752c0 1.428.624 2.156 2.556 2.156h1.05v2.126h-1.107c-3.095 0-4.913-.95-4.913-3.946v-8.086h-2.47v-2.07h2.47v-4.255h2.414v4.253-.002zm16.415 14.106v-1.482h-.624c-.881 1.091-2.415 1.846-4.46 1.846-3.294 0-5.14-2.182-5.14-4.59 0-2.267 1.505-4.673 5.481-4.673h4.658v-.56c0-1.708-.993-2.939-3.493-2.939-2.13 0-3.21.812-3.323 2.043h-2.414c.199-2.603 2.471-4.114 5.68-4.114 3.607 0 5.908 1.708 5.908 4.87v9.6h-2.273zm-4.487-1.706c2.386 0 4.402-1.764 4.402-4.002v-1.288h-4.288c-2.358 0-3.438 1.007-3.438 2.686 0 1.595 1.194 2.604 3.324 2.604z" id="Shape" fill="#027F68"/><path d="M6.391 12.736C2.861 12.736 0 9.886 0 6.37 0 2.853 2.86 0 6.391 0c3.53 0 6.39 2.851 6.39 6.369 0 3.516-2.86 6.367-6.39 6.367zm15.622 9.906c-3.53 0-6.39-2.85-6.39-6.367s2.86-6.369 6.39-6.369 6.392 2.851 6.392 6.369c0 3.516-2.862 6.367-6.392 6.367zM6.391 31.135C2.861 31.134 0 28.282 0 24.765s2.86-6.368 6.391-6.368c3.53 0 6.39 2.851 6.39 6.368 0 3.517-2.86 6.369-6.39 6.369zm31.244 0c-3.528 0-6.39-2.852-6.39-6.369s2.862-6.368 6.39-6.368c3.53 0 6.391 2.851 6.391 6.368 0 3.517-2.86 6.369-6.39 6.369h-.001zM22.013 41.04c-3.53 0-6.39-2.852-6.39-6.369 0-3.516 2.86-6.368 6.39-6.368s6.392 2.852 6.392 6.368c0 3.517-2.862 6.369-6.392 6.369zM6.391 49.53C2.861 49.53 0 46.678 0 43.16c0-3.516 2.86-6.367 6.391-6.367 3.53 0 6.39 2.851 6.39 6.368 0 3.516-2.86 6.368-6.39 6.368z" id="Shape" fill="url(#radialGradient-1)"/></g><g transform="translate(186.234 44.577)"><g id="Group" transform="translate(29.718 2.972)"><path d="M1.553.089v4.136c.274-.357.61-.66 1.006-.907a2.503 2.503 0 0 1 1.355-.372c.508 0 .945.07 1.31.208.366.139.686.347.96.625.63.605.945 1.404.945 2.395v4.33H5.986v-4.3c0-.684-.198-1.23-.594-1.637-.396-.406-.909-.61-1.538-.61-.64 0-1.184.209-1.63.625-.448.427-.671.972-.671 1.637v4.285H.41V.089h1.143zm7.115 10.415H9.81v-7.44H8.668v7.44zm-.046-8.69h1.234V.358H8.622v1.458zm6.52 2.143c-.822 0-1.472.278-1.95.834-.457.525-.685 1.19-.685 1.993 0 .804.228 1.468.685 1.994.478.556 1.128.833 1.95.833.813 0 1.473-.277 1.981-.833.477-.526.716-1.19.716-1.994 0-.803-.239-1.468-.716-1.993-.508-.556-1.168-.834-1.98-.834zm-2.574.298c.61-.873 1.518-1.31 2.727-1.31 1.097 0 1.985.373 2.666 1.117.68.734 1.02 1.641 1.02 2.722s-.34 1.99-1.02 2.723c-.68.744-1.595 1.116-2.742 1.116-1.148 0-2.032-.441-2.651-1.324v4.15h-1.143V3.066h1.143v1.19zm11.258-.298c-.822 0-1.472.278-1.95.834-.457.525-.685 1.19-.685 1.993 0 .804.228 1.468.685 1.994.478.556 1.128.833 1.95.833.813 0 1.473-.277 1.98-.833.478-.526.717-1.19.717-1.994 0-.803-.239-1.468-.716-1.993-.508-.556-1.168-.834-1.98-.834zm-2.574.298c.61-.873 1.518-1.31 2.727-1.31 1.097 0 1.985.373 2.666 1.117.68.734 1.02 1.641 1.02 2.722s-.34 1.99-1.02 2.723c-.68.744-1.595 1.116-2.742 1.116-1.148 0-2.032-.441-2.651-1.324v4.15h-1.143V3.066h1.143v1.19zm10.847 5.356c.823 0 1.473-.277 1.95-.833.457-.526.686-1.19.686-1.994 0-.803-.229-1.468-.686-1.993-.477-.556-1.127-.834-1.95-.834s-1.473.278-1.95.834c-.457.525-.686 1.19-.686 1.993 0 .804.229 1.468.686 1.994.477.556 1.127.833 1.95.833zm0-6.665c1.137 0 2.062.372 2.773 1.116.67.714 1.005 1.621 1.005 2.722s-.335 2.009-1.005 2.723c-.711.744-1.636 1.116-2.773 1.116-1.138 0-2.062-.372-2.773-1.116-.67-.714-1.005-1.622-1.005-2.723 0-1.1.335-2.008 1.005-2.722.711-.744 1.635-1.116 2.773-1.116z" id="Shape" fill="#1D1D1B"/><path d="M40.387 9.611c.822 0 1.472-.277 1.95-.833.457-.526.686-1.19.686-1.994 0-.803-.229-1.468-.686-1.993-.478-.556-1.128-.834-1.95-.834-.813 0-1.473.278-1.98.834-.478.525-.717 1.19-.717 1.993 0 .804.239 1.468.716 1.994.508.556 1.168.833 1.98.833zm2.575-.297c-.61.873-1.519 1.309-2.728 1.309-1.096 0-1.99-.372-2.68-1.116-.671-.734-1.006-1.641-1.006-2.723 0-1.08.335-1.988 1.005-2.722.69-.744 1.61-1.116 2.758-1.116 1.147 0 2.03.441 2.65 1.324V.089h1.143v10.415h-1.142v-1.19zm2.757 1.19h1.142v-7.44H45.72v7.44zm-.046-8.69h1.234V.358h-1.234v1.458zm6.17 7.678c.417 0 .787-.072 1.112-.216.325-.143.605-.34.838-.587.457-.516.686-1.17.686-1.964s-.229-1.448-.686-1.964c-.497-.536-1.147-.804-1.95-.804-.822 0-1.483.268-1.98.804-.478.526-.716 1.18-.716 1.964 0 .783.238 1.438.716 1.964.497.535 1.158.803 1.98.803zm2.575-5.237v-1.19h1.143v7.216c0 1.071-.313 1.887-.937 2.447-.625.56-1.466.84-2.522.84-1.056 0-1.881-.198-2.475-.594a2.956 2.956 0 0 1-1.212-1.577h1.265c.325.773 1.066 1.16 2.224 1.16.884 0 1.524-.198 1.92-.595.396-.397.594-.982.594-1.756V9.18c-.62.883-1.529 1.324-2.727 1.324-1.097 0-1.99-.367-2.682-1.101-.67-.714-1.005-1.607-1.005-2.678s.335-1.964 1.005-2.678c.691-.734 1.613-1.101 2.766-1.101 1.152 0 2.034.436 2.643 1.309zm2.757 6.249h1.143v-7.44h-1.143v7.44zm-.045-8.69h1.234V.358H57.13v1.458z" id="Shape" fill="#636363"/><path id="Path" fill="#636363" d="M60.756 10.504V4.047H59.2v-.983h1.555V.402h1.142v2.662h1.752v.983h-1.752v6.457z"/><path d="M67.748 9.611c.823 0 1.473-.277 1.95-.833.457-.526.686-1.19.686-1.994 0-.803-.229-1.468-.686-1.993-.477-.556-1.127-.834-1.95-.834-.812 0-1.473.278-1.98.834-.478.525-.716 1.19-.716 1.993 0 .804.238 1.468.716 1.994.507.556 1.168.833 1.98.833zm2.575-.297c-.61.873-1.518 1.309-2.727 1.309-1.097 0-1.99-.372-2.681-1.116-.67-.734-1.006-1.641-1.006-2.723 0-1.08.335-1.988 1.006-2.722.69-.744 1.61-1.116 2.757-1.116 1.148 0 2.031.441 2.651 1.324V3.065h1.143v7.439h-1.143v-1.19z" id="Shape" fill="#636363"/><path id="Path" fill="#636363" d="M73.08 10.504h1.143V.09H73.08z"/></g><path d="M9.144 18.987H8.087c.005 1.825-1.267 3.392-3.022 3.724-1.755.332-3.491-.666-4.126-2.372-.634-1.705.015-3.63 1.543-4.574a8.018 8.018 0 0 1-1.51-4.678.754.754 0 0 1-.972-.728c0-.421.334-.762.745-.762.124 0 .245.032.354.091.446-2.55 2.083-4.718 4.385-5.804a7.604 7.604 0 0 1 7.165.359 4.048 4.048 0 0 1 1.246-2.2 1.05 1.05 0 0 1-.691-1.21A1.027 1.027 0 0 1 14.31.006c.521.054.918.503.919 1.04.005.065.005.131 0 .197a3.904 3.904 0 0 1 3.2.238 4.056 4.056 0 0 1 1.99 2.574 4.74 4.74 0 0 1 5.756.587c1.578 1.48 2.01 3.848 1.063 5.812-.948 1.964-3.05 3.053-5.16 2.674-2.109-.38-3.721-2.136-3.957-4.313a3.875 3.875 0 0 1-1.552.323h-.307a8.04 8.04 0 0 1-1.33 6.753c1.453 1.007 2.01 2.922 1.332 4.578-.679 1.655-2.404 2.593-4.126 2.242-1.722-.352-2.963-1.895-2.967-3.69l-.028-.034z" id="Path" fill="#000"/></g></g></g></svg>