<svg width="693" height="906" viewBox="0 0 693 906" version="1.1" xmlns="http://www.w3.org/2000/svg" xmlns:xlink="http://www.w3.org/1999/xlink"><defs><linearGradient x1="88.917%" y1="75.553%" x2="31.631%" y2="50%" id="linearGradient-1"><stop stop-color="#05B693" offset="0%"/><stop stop-color="#027F5A" offset="100%"/></linearGradient><path id="path-2" d="M0 0h693v963H0z"/><linearGradient x1="-70.22%" y1="-72.234%" x2="60.653%" y2="77.362%" id="linearGradient-4"><stop stop-color="#05B693" offset="0%"/><stop stop-color="#027F5A" offset="100%"/></linearGradient><linearGradient x1="80.068%" y1="55.629%" x2="3.136%" y2="98.396%" id="linearGradient-5"><stop stop-color="#05B693" offset="0%"/><stop stop-color="#027F5A" offset="100%"/></linearGradient><linearGradient x1="80.068%" y1="55.482%" x2="3.136%" y2="97.138%" id="linearGradient-6"><stop stop-color="#05B693" offset="0%"/><stop stop-color="#027F5A" offset="100%"/></linearGradient><radialGradient cx="100%" cy="50%" fx="100%" fy="50%" r="100%" id="radialGradient-7"><stop stop-color="#05B693" offset="0%"/><stop stop-color="#027F5A" offset="100%"/></radialGradient><filter x="-34.8%" y="-188.9%" width="169.7%" height="477.8%" filterUnits="objectBoundingBox" id="filter-8"><feGaussianBlur stdDeviation="11.964" in="SourceGraphic"/></filter></defs><g id="Page-1" stroke="none" stroke-width="1" fill="none" fill-rule="evenodd"><g id="Home" transform="translate(-957)"><g id="backdrop" transform="translate(957 -57)"><g id="Group"><mask id="mask-3" fill="#fff"><use xlink:href="#path-2"/></mask><use id="Mask" fill="url(#linearGradient-1)" fill-rule="nonzero" opacity=".253" xlink:href="#path-2"/><g id="Group-17" mask="url(#mask-3)" fill-rule="nonzero"><g transform="translate(-20 -71)"><path id="Rectangle-15" fill="url(#linearGradient-4)" opacity=".106" d="M0 556h55v53H0z"/><path id="Path-3" fill="url(#linearGradient-5)" d="M54.708 599L636 1180H10V599z"/><path id="Path-4" fill="url(#linearGradient-6)" opacity=".226" d="M54.83 556L610 0H3v556z"/></g></g></g><circle id="Oval-2" fill="url(#radialGradient-7)" fill-rule="nonzero" cx="145" cy="526" r="17"/><circle id="Oval-2-Copy-3" fill="url(#radialGradient-7)" fill-rule="nonzero" cx="340.5" cy="523.5" r="90.5"/><circle id="Oval-2-Copy" fill="url(#radialGradient-7)" fill-rule="nonzero" cx="59" cy="523" r="6"/><g id="Group-15" transform="translate(140 665)" fill-rule="nonzero"><circle id="Oval-2-Copy-2" fill="url(#radialGradient-7)" cx="51" cy="45" r="45"/><ellipse id="Oval-5" fill="#026F52" opacity=".431" filter="url(#filter-8)" cx="51.5" cy="162.5" rx="51.5" ry="9.5"/></g></g></g></g></svg>