<svg width="25" height="25" viewBox="0 0 25 25" version="1.1" xmlns="http://www.w3.org/2000/svg"><g id="Page-1" stroke="none" stroke-width="1" fill="none" fill-rule="evenodd"><g id="linkedin" fill="#FFF" fill-rule="nonzero"><path d="M5.596 24.499H.413V8.142h5.183v16.357zM3.002 5.91C1.344 5.91 0 4.565 0 2.94 0 2.16.316 1.414.88.86A3.033 3.033 0 0 1 3.001 0c.796 0 1.56.31 2.122.86.563.553.88 1.3.88 2.08 0 1.625-1.346 2.97-3.002 2.97zM24.994 24.5h-5.171v-7.963c0-1.897-.04-4.331-2.695-4.331-2.695 0-3.108 2.062-3.108 4.194v8.1H8.843V8.142h4.97v2.23h.073c.692-1.284 2.382-2.64 4.904-2.64 5.246 0 6.21 3.385 6.21 7.782v8.985h-.006z" id="icon-linkedin"/></g></g></svg>