<svg width="23" height="19" viewBox="0 0 23 19" version="1.1" xmlns="http://www.w3.org/2000/svg"><g id="Page-1" stroke="none" stroke-width="1" fill="none" fill-rule="evenodd"><g id="icontwitter" fill="#FFF" fill-rule="nonzero"><path d="M20.636 4.655c.014.205.014.41.014.613 0 6.232-4.743 13.412-13.411 13.412A13.32 13.32 0 0 1 0 16.564a9.7 9.7 0 0 0 1.138.058 9.44 9.44 0 0 0 5.852-2.014 4.722 4.722 0 0 1-4.407-3.269c.292.044.584.073.89.073.424 0 .847-.058 1.24-.16A4.714 4.714 0 0 1 .935 6.626v-.059c.627.35 1.357.57 2.13.599a4.71 4.71 0 0 1-2.1-3.926c0-.876.233-1.678.641-2.379a13.399 13.399 0 0 0 9.72 4.933 5.325 5.325 0 0 1-.117-1.08A4.712 4.712 0 0 1 15.922 0c1.357 0 2.583.57 3.444 1.489A9.28 9.28 0 0 0 22.358.35a4.701 4.701 0 0 1-2.073 2.598A9.45 9.45 0 0 0 23 2.218a10.132 10.132 0 0 1-2.364 2.437z" id="icon-twitter"/></g></g></svg>