<svg xmlns="http://www.w3.org/2000/svg" width="30" height="30" viewBox="0 0 30 30" version="1.1"><g id="Page-1" stroke="none" stroke-width="1" fill="none" fill-rule="evenodd"><g id="Contact" transform="translate(-137 -948)" fill-rule="nonzero"><g id="linkedin" transform="translate(137 948)"><path d="M27.833 0H2.167C1 0 0 1 0 2.167v25.666C0 29 1 30 2.167 30h25.5c1.166 0 2.166-1 2.166-2.167V2.167C30 1 29 0 27.833 0z" id="Path" fill="#039571"/><path d="M4.5 11.167H9V25.5H4.5V11.167zm2.167-7c1.5 0 2.5 1.166 2.5 2.5 0 1.333-1 2.666-2.5 2.666s-2.5-1.166-2.5-2.666 1-2.5 2.5-2.5zm5 7H16v2c.667-1.167 2-2.334 4.167-2.334 4.5 0 5.333 3 5.333 6.834V25.5H21v-7c0-1.667 0-3.833-2.333-3.833-2.334 0-2.667 1.833-2.667 3.666v7h-4.333V11.167z" id="Shape" fill="#FFF"/></g></g></g></svg>