<svg width="173" height="23" viewBox="0 0 173 23" version="1.1" xmlns="http://www.w3.org/2000/svg"><g id="Page-1" stroke="none" stroke-width="1" fill="none" fill-rule="evenodd"><g id="logo-hippodigital" fill-rule="nonzero"><g id="Group-2" transform="translate(52)" fill="#FFF"><path d="M84.254 4.83c1.88 0 3.318.737 4.313 2.209V5.03h1.864v12.173c0 1.807-.51 3.183-1.529 4.128-1.019.945-2.39 1.418-4.114 1.418-1.724 0-3.07-.335-4.04-1.004-.969-.669-1.628-1.556-1.976-2.66h2.064c.53 1.305 1.74 1.958 3.63 1.958 1.44 0 2.485-.335 3.131-1.004.647-.67.97-1.657.97-2.962v-1.732c-1.011 1.49-2.495 2.234-4.45 2.234-1.79 0-3.248-.619-4.375-1.857-1.094-1.205-1.64-2.71-1.64-4.518 0-1.807.546-3.313 1.64-4.518 1.127-1.238 2.63-1.857 4.512-1.857zm-45.354 0c1.79 0 3.24.627 4.35 1.882 1.11 1.239 1.666 2.77 1.666 4.594 0 1.823-.556 3.354-1.666 4.592-1.11 1.256-2.602 1.883-4.474 1.883-1.873 0-3.315-.745-4.326-2.234v7.003h-1.864V5.03h1.864v2.01c.995-1.472 2.478-2.209 4.45-2.209zm-14.17 0c1.79 0 3.24.627 4.351 1.882 1.11 1.239 1.666 2.77 1.666 4.594 0 1.823-.556 3.354-1.666 4.592-1.11 1.256-2.602 1.883-4.475 1.883-1.872 0-3.314-.745-4.325-2.234v7.003h-1.864V5.03h1.864v2.01c.995-1.472 2.477-2.209 4.45-2.209zm27.42 0c1.855 0 3.364.627 4.524 1.883 1.094 1.204 1.64 2.735 1.64 4.593 0 1.857-.546 3.388-1.64 4.592-1.16 1.255-2.669 1.883-4.524 1.883-1.857 0-3.365-.628-4.525-1.883-1.093-1.204-1.64-2.735-1.64-4.592 0-1.858.547-3.389 1.64-4.593 1.16-1.256 2.668-1.883 4.525-1.883zM71.738.011v17.57h-1.864v-2.009c-.995 1.473-2.478 2.209-4.45 2.209-1.79 0-3.248-.628-4.375-1.883-1.094-1.237-1.64-2.769-1.64-4.592 0-1.824.546-3.355 1.64-4.593 1.127-1.256 2.627-1.883 4.5-1.883 1.872 0 3.314.745 4.325 2.234V.011h1.864zm38.455 4.819c1.873 0 3.314.745 4.326 2.234V5.031h1.864v12.55h-1.864v-2.009c-.995 1.473-2.478 2.209-4.45 2.209-1.79 0-3.249-.628-4.375-1.883-1.094-1.237-1.64-2.769-1.64-4.592 0-1.824.546-3.355 1.64-4.593 1.126-1.256 2.626-1.883 4.499-1.883zM100.771.539V5.03h2.86v1.657h-2.86V17.58h-1.863V6.687H96.37V5.03h2.537V.54h1.863zM15.781 5.03v12.55h-1.863V5.03h1.864zm60.456 0v12.55h-1.864V5.03h1.864zm18.693 0v12.55h-1.864V5.03h1.864zM120.882.01v17.57h-1.865V.01h1.865zM2.309.011V6.99a6.27 6.27 0 0 1 1.64-1.532c.647-.417 1.384-.627 2.213-.627.828 0 1.541.117 2.138.351a4.337 4.337 0 0 1 1.566 1.055c1.027 1.02 1.541 2.367 1.541 4.04v7.304H9.543v-7.253c0-1.155-.323-2.075-.97-2.761-.646-.686-1.483-1.03-2.51-1.03-1.045 0-1.931.352-2.66 1.055-.73.72-1.094 1.64-1.094 2.76v7.23H.444V.01H2.31zm49.84 6.526c-1.342 0-2.403.468-3.181 1.405-.746.887-1.119 2.008-1.119 3.364 0 1.355.373 2.476 1.119 3.363.778.937 1.84 1.405 3.182 1.405 1.342 0 2.402-.468 3.182-1.405.745-.887 1.118-2.008 1.118-3.363 0-1.356-.373-2.477-1.118-3.364-.78-.937-1.84-1.405-3.182-1.405zm58.168 0c-1.326 0-2.403.468-3.231 1.405-.78.887-1.169 2.008-1.169 3.364 0 1.355.39 2.476 1.169 3.363.828.937 1.905 1.405 3.231 1.405 1.343 0 2.403-.468 3.182-1.405.746-.887 1.119-2.008 1.119-3.363 0-1.356-.373-2.477-1.119-3.364-.779-.937-1.84-1.405-3.182-1.405zm-44.644 0c-1.327 0-2.404.468-3.232 1.405-.78.887-1.168 2.008-1.168 3.364 0 1.355.389 2.476 1.168 3.363.828.937 1.905 1.405 3.232 1.405 1.342 0 2.402-.468 3.181-1.405.746-.887 1.12-2.008 1.12-3.363 0-1.356-.374-2.477-1.12-3.364-.779-.937-1.84-1.405-3.181-1.405zm-41.19 0c-1.343 0-2.404.468-3.183 1.405-.745.887-1.118 2.008-1.118 3.364 0 1.355.373 2.476 1.118 3.363.78.937 1.84 1.405 3.182 1.405 1.326 0 2.403-.468 3.232-1.405.779-.887 1.168-2.008 1.168-3.363 0-1.356-.39-2.477-1.168-3.364-.829-.937-1.906-1.405-3.232-1.405zm14.169 0c-1.343 0-2.404.468-3.182 1.405-.746.887-1.12 2.008-1.12 3.364 0 1.355.374 2.476 1.12 3.363.778.937 1.839 1.405 3.182 1.405 1.325 0 2.402-.468 3.231-1.405.779-.887 1.168-2.008 1.168-3.363 0-1.356-.39-2.477-1.168-3.364-.829-.937-1.906-1.405-3.231-1.405zm45.714 0c-1.343 0-2.42.452-3.232 1.355-.78.887-1.168 1.991-1.168 3.313s.389 2.426 1.168 3.313c.812.904 1.89 1.355 3.232 1.355.679 0 1.284-.12 1.814-.364.53-.242.986-.573 1.367-.99.746-.87 1.12-1.975 1.12-3.314s-.374-2.443-1.12-3.313c-.812-.903-1.872-1.355-3.181-1.355zM76.312.463v2.46h-2.014V.463h2.014zm18.693 0v2.46H92.99V.463h2.014zm-79.148 0v2.46h-2.014V.463h2.014z" id="Combined-Shape"/></g><g id="Part-of" transform="translate(0 5)"><g id="Partof"><g id="path-1-link" fill="#000"><path d="M.36.912A8.08 8.08 0 0 1 1.672.72c.47-.032.933-.048 1.392-.048.49 0 .99.048 1.496.144.507.096.968.272 1.384.528.416.256.755.608 1.016 1.056.261.448.392 1.019.392 1.712 0 .683-.123 1.259-.368 1.728-.245.47-.57.85-.976 1.144a3.95 3.95 0 0 1-1.392.632A6.769 6.769 0 0 1 3 7.808h-.264a9.62 9.62 0 0 1-.776-.032 2.75 2.75 0 0 1-.272-.032V12H.36V.912zm2.736.912c-.277 0-.544.005-.8.016-.256.01-.459.037-.608.08v4.64a.85.85 0 0 0 .256.04l.368.016c.128.005.25.008.368.008h.256c.363 0 .723-.035 1.08-.104a2.8 2.8 0 0 0 .968-.376c.288-.181.52-.437.696-.768.176-.33.264-.752.264-1.264 0-.437-.083-.803-.248-1.096a1.983 1.983 0 0 0-.656-.704 2.765 2.765 0 0 0-.92-.376 4.78 4.78 0 0 0-1.024-.112zm5.392 2.768a4.609 4.609 0 0 1 1.416-.544 7.911 7.911 0 0 1 1.688-.176c.555 0 1 .075 1.336.224.336.15.592.344.768.584a2 2 0 0 1 .352.792c.059.288.088.576.088.864 0 .64-.016 1.264-.048 1.872a32.951 32.951 0 0 0-.048 1.728c0 .395.016.768.048 1.12.032.352.09.677.176.976h-.944l-.336-1.12h-.08c-.096.15-.216.296-.36.44a2.308 2.308 0 0 1-.52.384 3.284 3.284 0 0 1-1.616.392c-.341 0-.659-.053-.952-.16A2.132 2.132 0 0 1 8.192 10.8a2.311 2.311 0 0 1-.184-.944c0-.47.096-.861.288-1.176.192-.315.461-.565.808-.752a3.99 3.99 0 0 1 1.248-.4 9.922 9.922 0 0 1 1.608-.12h.44c.144 0 .29.01.44.032.032-.32.048-.608.048-.864 0-.587-.117-.997-.352-1.232s-.661-.352-1.28-.352a4.55 4.55 0 0 0-.584.04 7.34 7.34 0 0 0-.64.112 5.326 5.326 0 0 0-.624.176c-.197.07-.37.147-.52.232l-.4-.96zm2.272 6.416c.299 0 .565-.04.8-.12.235-.08.437-.181.608-.304a1.936 1.936 0 0 0 .672-.84V8.416a12.398 12.398 0 0 0-.912-.032c-.33 0-.653.019-.968.056a3.064 3.064 0 0 0-.832.208c-.24.101-.432.24-.576.416a1.014 1.014 0 0 0-.216.664c0 .373.133.68.4.92s.608.36 1.024.36zm9.568-5.776a2.885 2.885 0 0 0-.912-.16c-.459 0-.821.125-1.088.376-.267.25-.432.568-.496.952V12h-1.28V4h.896l.24.976h.064c.203-.363.445-.643.728-.84.283-.197.643-.296 1.08-.296.31 0 .656.053 1.04.16l-.272 1.232zM21.416 4h1.248V2.416l1.28-.368V4h2.176v1.12h-2.176v4.432c0 .555.07.947.208 1.176.139.23.373.344.704.344.277 0 .512-.03.704-.088.192-.059.405-.136.64-.232l.288.976c-.288.139-.603.25-.944.336a4.56 4.56 0 0 1-1.104.128c-.65 0-1.11-.184-1.376-.552-.267-.368-.4-.984-.4-1.848V5.12h-1.248V4zM31.72 8c0-1.355.301-2.392.904-3.112.603-.72 1.47-1.08 2.6-1.08.597 0 1.117.099 1.56.296.443.197.808.48 1.096.848.288.368.501.81.64 1.328.139.517.208 1.09.208 1.72 0 1.355-.301 2.392-.904 3.112-.603.72-1.47 1.08-2.6 1.08-.597 0-1.117-.099-1.56-.296a2.83 2.83 0 0 1-1.096-.848 3.667 3.667 0 0 1-.64-1.328A6.639 6.639 0 0 1 31.72 8zm1.328 0c0 .405.04.795.12 1.168.08.373.205.699.376.976.17.277.395.501.672.672.277.17.613.256 1.008.256 1.45.01 2.176-1.013 2.176-3.072 0-.416-.04-.81-.12-1.184a3.079 3.079 0 0 0-.376-.976 1.953 1.953 0 0 0-.672-.664c-.277-.165-.613-.248-1.008-.248-1.45-.01-2.176 1.013-2.176 3.072zm6.624-4h1.248v-.448c0-.49.04-.917.12-1.28.08-.363.21-.659.392-.888.181-.23.416-.4.704-.512.288-.112.645-.168 1.072-.168.341 0 .643.021.904.064s.536.123.824.24l-.288 1.072a2.758 2.758 0 0 0-.696-.208 4.266 4.266 0 0 0-.616-.048c-.277 0-.493.043-.648.128a.747.747 0 0 0-.336.376c-.07.165-.112.368-.128.608s-.024.52-.024.84V4h2.128v1.12H42.2V12h-1.28V5.12h-1.248V4z" id="path-1"/></g><g id="path-1-link" fill="#FFF"><path d="M.36.912A8.08 8.08 0 0 1 1.672.72c.47-.032.933-.048 1.392-.048.49 0 .99.048 1.496.144.507.096.968.272 1.384.528.416.256.755.608 1.016 1.056.261.448.392 1.019.392 1.712 0 .683-.123 1.259-.368 1.728-.245.47-.57.85-.976 1.144a3.95 3.95 0 0 1-1.392.632A6.769 6.769 0 0 1 3 7.808h-.264a9.62 9.62 0 0 1-.776-.032 2.75 2.75 0 0 1-.272-.032V12H.36V.912zm2.736.912c-.277 0-.544.005-.8.016-.256.01-.459.037-.608.08v4.64a.85.85 0 0 0 .256.04l.368.016c.128.005.25.008.368.008h.256c.363 0 .723-.035 1.08-.104a2.8 2.8 0 0 0 .968-.376c.288-.181.52-.437.696-.768.176-.33.264-.752.264-1.264 0-.437-.083-.803-.248-1.096a1.983 1.983 0 0 0-.656-.704 2.765 2.765 0 0 0-.92-.376 4.78 4.78 0 0 0-1.024-.112zm5.392 2.768a4.609 4.609 0 0 1 1.416-.544 7.911 7.911 0 0 1 1.688-.176c.555 0 1 .075 1.336.224.336.15.592.344.768.584a2 2 0 0 1 .352.792c.059.288.088.576.088.864 0 .64-.016 1.264-.048 1.872a32.951 32.951 0 0 0-.048 1.728c0 .395.016.768.048 1.12.032.352.09.677.176.976h-.944l-.336-1.12h-.08c-.096.15-.216.296-.36.44a2.308 2.308 0 0 1-.52.384 3.284 3.284 0 0 1-1.616.392c-.341 0-.659-.053-.952-.16A2.132 2.132 0 0 1 8.192 10.8a2.311 2.311 0 0 1-.184-.944c0-.47.096-.861.288-1.176.192-.315.461-.565.808-.752a3.99 3.99 0 0 1 1.248-.4 9.922 9.922 0 0 1 1.608-.12h.44c.144 0 .29.01.44.032.032-.32.048-.608.048-.864 0-.587-.117-.997-.352-1.232s-.661-.352-1.28-.352a4.55 4.55 0 0 0-.584.04 7.34 7.34 0 0 0-.64.112 5.326 5.326 0 0 0-.624.176c-.197.07-.37.147-.52.232l-.4-.96zm2.272 6.416c.299 0 .565-.04.8-.12.235-.08.437-.181.608-.304a1.936 1.936 0 0 0 .672-.84V8.416a12.398 12.398 0 0 0-.912-.032c-.33 0-.653.019-.968.056a3.064 3.064 0 0 0-.832.208c-.24.101-.432.24-.576.416a1.014 1.014 0 0 0-.216.664c0 .373.133.68.4.92s.608.36 1.024.36zm9.568-5.776a2.885 2.885 0 0 0-.912-.16c-.459 0-.821.125-1.088.376-.267.25-.432.568-.496.952V12h-1.28V4h.896l.24.976h.064c.203-.363.445-.643.728-.84.283-.197.643-.296 1.08-.296.31 0 .656.053 1.04.16l-.272 1.232zM21.416 4h1.248V2.416l1.28-.368V4h2.176v1.12h-2.176v4.432c0 .555.07.947.208 1.176.139.23.373.344.704.344.277 0 .512-.03.704-.088.192-.059.405-.136.64-.232l.288.976c-.288.139-.603.25-.944.336a4.56 4.56 0 0 1-1.104.128c-.65 0-1.11-.184-1.376-.552-.267-.368-.4-.984-.4-1.848V5.12h-1.248V4zM31.72 8c0-1.355.301-2.392.904-3.112.603-.72 1.47-1.08 2.6-1.08.597 0 1.117.099 1.56.296.443.197.808.48 1.096.848.288.368.501.81.64 1.328.139.517.208 1.09.208 1.72 0 1.355-.301 2.392-.904 3.112-.603.72-1.47 1.08-2.6 1.08-.597 0-1.117-.099-1.56-.296a2.83 2.83 0 0 1-1.096-.848 3.667 3.667 0 0 1-.64-1.328A6.639 6.639 0 0 1 31.72 8zm1.328 0c0 .405.04.795.12 1.168.08.373.205.699.376.976.17.277.395.501.672.672.277.17.613.256 1.008.256 1.45.01 2.176-1.013 2.176-3.072 0-.416-.04-.81-.12-1.184a3.079 3.079 0 0 0-.376-.976 1.953 1.953 0 0 0-.672-.664c-.277-.165-.613-.248-1.008-.248-1.45-.01-2.176 1.013-2.176 3.072zm6.624-4h1.248v-.448c0-.49.04-.917.12-1.28.08-.363.21-.659.392-.888.181-.23.416-.4.704-.512.288-.112.645-.168 1.072-.168.341 0 .643.021.904.064s.536.123.824.24l-.288 1.072a2.758 2.758 0 0 0-.696-.208 4.266 4.266 0 0 0-.616-.048c-.277 0-.493.043-.648.128a.747.747 0 0 0-.336.376c-.07.165-.112.368-.128.608s-.024.52-.024.84V4h2.128v1.12H42.2V12h-1.28V5.12h-1.248V4z" id="path-1"/></g></g></g></g></g></svg>