<svg width="238" height="41" viewBox="0 0 238 41" version="1.1" xmlns="http://www.w3.org/2000/svg"><defs><radialGradient cx="100%" cy="49.989%" fx="100%" fy="49.989%" r="113.889%" gradientTransform="matrix(0 .87805 -1 0 1.5 -.378)" id="radialGradient-1"><stop stop-color="#05B693" offset="0%"/><stop stop-color="#FFF" offset="100%"/></radialGradient></defs><g id="Page-1" stroke="none" stroke-width="1" fill="none" fill-rule="evenodd"><g id="cdl_logo" fill-rule="nonzero"><path d="M68.163 24.783h2.23c-.68 2.855-2.958 4.855-6.644 4.855-5.002 0-7.749-3.552-7.749-8.318s2.794-8.318 7.772-8.318c3.405 0 5.753 1.73 6.434 4.496h-2.231c-.634-1.709-1.878-2.653-4.204-2.653-3.897 0-5.634 3.08-5.634 6.475 0 3.417 1.713 6.475 5.612 6.475 2.348 0 3.873-1.146 4.414-3.012zm10.19-7.061c3.686 0 5.824 2.608 5.824 5.958s-2.138 5.958-5.823 5.958c-3.71 0-5.823-2.608-5.823-5.958s2.113-5.958 5.823-5.958zm0 10.253c2.607 0 3.828-2.07 3.828-4.295 0-2.226-1.221-4.294-3.827-4.294-2.63 0-3.828 2.069-3.828 4.294 0 2.226 1.197 4.295 3.828 4.295zm19.23 1.37h-1.995v-6.789c0-2.091-1.009-3.125-3.006-3.125-2.113 0-3.521 1.776-3.521 3.777v6.138h-1.996V18.014h1.925v1.214h.516c.659-.877 1.974-1.506 3.57-1.506 2.912 0 4.508 1.709 4.508 4.43v7.194zm5.801 0l-3.921-11.33h2.066l3.31 9.532h.964l3.194-9.533h2.088l-3.968 11.332h-3.733zm19.982-6.34v.653h-9.017c.071 2.697 1.339 4.317 3.781 4.317 1.667 0 2.654-.675 3.006-1.754h2.019c-.376 1.933-2.09 3.417-5.025 3.417-3.686 0-5.752-2.586-5.752-6.07 0-3.486 2.113-5.846 5.705-5.846 3.521 0 5.213 2.496 5.283 5.284zm-5.33-3.62c-2.137 0-3.31 1.238-3.57 2.676h6.834c-.117-1.438-1.268-2.675-3.264-2.675zm14.957-1.37v1.797h-.986c-2.348 0-3.78 1.372-3.78 3.868v5.666h-1.996V18.014h1.925v1.35h.517c.587-.697 1.714-1.35 3.428-1.35h.892zm11.036 0h1.925v10.769c0 3.17-2.065 5.216-5.517 5.216-3.03 0-5.001-1.214-5.353-3.462h1.972c.352 1.348 1.572 1.843 3.358 1.843 2.441 0 3.545-1.417 3.545-3.687v-.9h-.516c-.635.788-1.762 1.507-3.546 1.507-3.264 0-5.26-2.473-5.26-5.779 0-3.327 1.996-5.8 5.26-5.8 1.855 0 2.982.72 3.616 1.506h.516v-1.214zm-3.756 9.622c2.535 0 3.733-1.956 3.733-4.114 0-2.181-1.198-4.138-3.733-4.138-2.325 0-3.64 1.642-3.64 4.138 0 2.451 1.315 4.114 3.64 4.114zm11.41-12.568h-2.112V13h2.113v2.069zm-.07 2.945v11.332h-1.995V18.014h1.995zm14.207 11.332h-1.996v-6.79c0-2.091-1.01-3.125-3.006-3.125-2.113 0-3.522 1.776-3.522 3.777v6.138h-1.995V18.014h1.924v1.214h.517c.658-.877 1.973-1.506 3.57-1.506 2.91 0 4.508 1.709 4.508 4.43v7.194zm12.092-11.332h1.925v10.77c0 3.17-2.066 5.216-5.518 5.216-3.028 0-5-1.214-5.353-3.462h1.973c.352 1.348 1.572 1.843 3.357 1.843 2.442 0 3.546-1.417 3.546-3.687v-.9h-.516c-.635.788-1.762 1.507-3.546 1.507-3.264 0-5.26-2.473-5.26-5.779 0-3.327 1.996-5.8 5.26-5.8 1.855 0 2.982.72 3.616 1.506h.516v-1.214zm-3.756 9.623c2.535 0 3.733-1.956 3.733-4.114 0-2.181-1.198-4.138-3.733-4.138-2.326 0-3.64 1.642-3.64 4.138 0 2.451 1.314 4.114 3.64 4.114zm15.802-14.344h6.27c5.141 0 7.747 3.192 7.747 8.027 0 4.81-2.606 8.026-7.747 8.026h-6.27V13.293zm2.113 14.209h4.157c4.062 0 5.611-2.833 5.611-6.183 0-3.35-1.55-6.183-5.611-6.183h-4.157v12.366zm22.424 1.844v-1.192h-.515c-.73.877-1.997 1.484-3.688 1.484-2.724 0-4.25-1.753-4.25-3.687 0-1.822 1.245-3.754 4.532-3.754h3.851v-.45c0-1.372-.821-2.361-2.888-2.361-1.76 0-2.653.652-2.747 1.64h-1.996c.163-2.09 2.042-3.304 4.696-3.304 2.982 0 4.884 1.372 4.884 3.912v7.712h-1.879zm-3.71-1.371c1.973 0 3.64-1.417 3.64-3.215v-1.035h-3.546c-1.949 0-2.84.81-2.84 2.158 0 1.281.986 2.092 2.746 2.092zm11.765-9.96h2.98v1.663h-2.98v6.228c0 1.146.516 1.731 2.113 1.731h.868v1.709h-.915c-2.56 0-4.062-.764-4.062-3.17V19.68h-2.043v-1.664h2.043V14.6h1.996v3.417-.002zm13.571 11.33v-1.19h-.516c-.729.876-1.996 1.483-3.687 1.483-2.724 0-4.25-1.753-4.25-3.687 0-1.822 1.244-3.754 4.532-3.754h3.85v-.45c0-1.372-.82-2.361-2.887-2.361-1.76 0-2.654.652-2.748 1.64h-1.996c.165-2.09 2.044-3.304 4.696-3.304 2.982 0 4.885 1.372 4.885 3.912v7.712h-1.879zm-3.71-1.37c1.973 0 3.64-1.417 3.64-3.215v-1.035h-3.546c-1.949 0-2.842.81-2.842 2.158 0 1.281.987 2.092 2.748 2.092z" id="Converging-Data" fill="#FFF"/><path d="M5.226 10.543C2.34 10.543 0 8.183 0 5.273 0 2.362 2.34 0 5.226 0s5.226 2.36 5.226 5.272c0 2.91-2.34 5.27-5.226 5.27zM18 18.743c-2.886 0-5.225-2.36-5.225-5.271S15.114 8.2 18 8.2c2.886 0 5.226 2.36 5.226 5.272 0 2.91-2.34 5.27-5.226 5.27zm-12.774 7.03C2.34 25.772 0 23.41 0 20.5c0-2.911 2.34-5.272 5.226-5.272s5.226 2.361 5.226 5.272-2.34 5.272-5.226 5.272zm25.548 0c-2.885 0-5.225-2.361-5.225-5.272s2.34-5.272 5.225-5.272c2.887 0 5.226 2.36 5.226 5.272 0 2.91-2.34 5.272-5.225 5.272h-.001zM18 33.973c-2.886 0-5.225-2.361-5.225-5.272s2.339-5.272 5.225-5.272c2.886 0 5.226 2.36 5.226 5.272 0 2.91-2.34 5.272-5.226 5.272zM5.226 41C2.34 41 0 38.64 0 35.728c0-2.91 2.34-5.27 5.226-5.27s5.226 2.36 5.226 5.27c0 2.911-2.34 5.272-5.226 5.272z" id="Combined-Shape" fill="url(#radialGradient-1)"/></g></g></svg>