<svg width="222" height="221" viewBox="0 0 222 221" version="1.1" xmlns="http://www.w3.org/2000/svg" xmlns:xlink="http://www.w3.org/1999/xlink"><defs><radialGradient cx="100%" cy="50%" fx="100%" fy="50%" r="100%" id="radialGradient-1"><stop stop-color="#05B693" offset="0%"/><stop stop-color="#027F5A" offset="100%"/></radialGradient><circle id="path-2" cx="111.5" cy="130.5" r="10.5"/><filter x="-528.6%" y="-528.6%" width="1157.1%" height="1157.1%" filterUnits="objectBoundingBox" id="filter-3"><feMorphology radius="15" operator="dilate" in="SourceAlpha" result="shadowSpreadOuter1"/><feOffset dx="0" dy="0" in="shadowSpreadOuter1" result="shadowOffsetOuter1"/><feGaussianBlur stdDeviation="22" in="shadowOffsetOuter1" result="shadowBlurOuter1"/><feColorMatrix values="0 0 0 0 1 0 0 0 0 1 0 0 0 0 1 0 0 0 0.455502717 0" type="matrix" in="shadowBlurOuter1"/></filter><path id="path-4" d="M0 0h137v64H0z"/><filter x="-23.2%" y="-39.5%" width="146.3%" height="179.1%" filterUnits="objectBoundingBox" id="filter-6"><feGaussianBlur stdDeviation="5.402" in="SourceGraphic"/></filter></defs><g id="Page-1" stroke="none" stroke-width="1" fill="none" fill-rule="evenodd"><g id="Home" transform="translate(-715 -1605)"><g id="Group-2" transform="translate(715 1605)"><g id="Group-24" stroke="#027F5A"><path id="Stroke-1" d="M.809 220.118h220l-110-220z"/><path id="Stroke-3" d="M4.976 218.166h211.667L110.808 6.499z"/><path id="Stroke-4" d="M9.143 216.214h203.333L110.81 12.88z"/><path id="Stroke-5" d="M13.309 214.26h195l-97.5-195z"/><path id="Stroke-6" d="M17.476 212.308h186.667L110.808 25.641z"/><path id="Stroke-7" d="M21.642 210.356h178.334L110.81 32.023z"/><path id="Stroke-8" d="M25.809 208.404h170l-85-170z"/><path id="Stroke-9" d="M29.976 206.451h161.667L110.808 44.784z"/><path id="Stroke-10" d="M34.142 204.499h153.334L110.81 51.166z"/><path id="Stroke-11" d="M38.309 202.547h145l-72.5-145z"/><path id="Stroke-12" d="M42.475 200.595h136.668L110.808 63.928z"/><path id="Stroke-13" d="M46.642 198.641h128.334L110.81 70.308z"/><path id="Stroke-14" d="M50.809 196.69h120l-60-120z"/><path id="Stroke-15" d="M54.975 194.737h111.668L110.808 83.07z"/><path id="Stroke-16" d="M59.142 192.785h103.334L110.81 89.452z"/><path id="Stroke-17" d="M63.309 190.832h95l-47.5-95z"/><path id="Stroke-18" d="M67.475 188.88h86.668l-43.335-86.667z"/><path id="Stroke-19" d="M71.642 186.928h78.334l-39.166-78.333z"/><path id="Stroke-20" d="M75.809 184.975h70l-35-70z"/><path id="Stroke-21" d="M79.975 183.022h61.668l-30.835-61.666z"/><path id="Stroke-22" d="M84.142 181.07h53.334l-26.666-53.333z"/><path id="Stroke-23" d="M88.309 179.118h45l-22.5-45z"/></g><g id="Oval-3" fill-rule="nonzero"><use fill="#000" fill-opacity="1" filter="url(#filter-3)" xlink:href="#path-2"/><use fill="url(#radialGradient-1)" xlink:href="#path-2"/></g><g id="Oval-3-Copy" transform="translate(55 157)"><mask id="mask-5" fill="#fff"><use xlink:href="#path-4"/></mask><circle fill="url(#radialGradient-1)" fill-rule="nonzero" mask="url(#mask-5)" cx="55.5" cy="41.5" r="40.5"/><rect id="Rectangle-8" fill="#027F5A" fill-rule="nonzero" style="mix-blend-mode:multiply" opacity=".624" filter="url(#filter-6)" mask="url(#mask-5)" x="21" y="48" width="70" height="41" rx="20.5"/></g></g></g></g></svg>