<svg width="237" height="226" viewBox="0 0 237 226" version="1.1" xmlns="http://www.w3.org/2000/svg" xmlns:xlink="http://www.w3.org/1999/xlink"><defs><radialGradient cx="8.493%" cy="100%" fx="8.493%" fy="100%" r="243.419%" id="radialGradient-1"><stop stop-color="#027F5A" stop-opacity="0" offset="0%"/><stop stop-color="#027F5A" stop-opacity=".627" offset="99.915%"/><stop stop-color="#027F5A" offset="100%"/></radialGradient><path id="path-2" d="M0 0h220v220H0z"/><path id="path-4" d="M0 0h137v64H0z"/><radialGradient cx="100%" cy="50%" fx="100%" fy="50%" r="100%" id="radialGradient-6"><stop stop-color="#05B693" offset="0%"/><stop stop-color="#027F5A" offset="100%"/></radialGradient><filter x="-23.2%" y="-39.5%" width="146.3%" height="179.1%" filterUnits="objectBoundingBox" id="filter-7"><feGaussianBlur stdDeviation="5.402" in="SourceGraphic"/></filter><circle id="path-8" cx="18" cy="31" r="18"/><filter x="-308.3%" y="-308.3%" width="716.7%" height="716.7%" filterUnits="objectBoundingBox" id="filter-9"><feMorphology radius="15" operator="dilate" in="SourceAlpha" result="shadowSpreadOuter1"/><feOffset dx="0" dy="0" in="shadowSpreadOuter1" result="shadowOffsetOuter1"/><feGaussianBlur stdDeviation="22" in="shadowOffsetOuter1" result="shadowBlurOuter1"/><feColorMatrix values="0 0 0 0 1 0 0 0 0 1 0 0 0 0 1 0 0 0 0.455502717 0" type="matrix" in="shadowBlurOuter1"/></filter><circle id="path-10" cx="56" cy="5" r="5"/><filter x="-1110%" y="-1110%" width="2320%" height="2320%" filterUnits="objectBoundingBox" id="filter-11"><feMorphology radius="15" operator="dilate" in="SourceAlpha" result="shadowSpreadOuter1"/><feOffset dx="0" dy="0" in="shadowSpreadOuter1" result="shadowOffsetOuter1"/><feGaussianBlur stdDeviation="22" in="shadowOffsetOuter1" result="shadowBlurOuter1"/><feColorMatrix values="0 0 0 0 1 0 0 0 0 1 0 0 0 0 1 0 0 0 0.455502717 0" type="matrix" in="shadowBlurOuter1"/></filter></defs><g id="Page-1" stroke="none" stroke-width="1" fill="none" fill-rule="evenodd"><g id="Home" transform="translate(-1159 -2139)"><g id="Group-9" transform="translate(1176 2139)"><path id="Rectangle-9" fill="url(#radialGradient-1)" fill-rule="nonzero" d="M0 0h220v220H0z"/><g id="Group-45"><mask id="mask-3" fill="#fff"><use xlink:href="#path-2"/></mask><use id="Mask" fill="url(#radialGradient-1)" fill-rule="nonzero" xlink:href="#path-2"/><g mask="url(#mask-3)" stroke="#027F5A"><g transform="translate(-168 108)"><path d="M0 305L279 0" id="Stroke-1"/><path d="M26 305L280 0" id="Stroke-3"/><path d="M52 305L280 0" id="Stroke-5"/><path d="M78 305L279 0" id="Stroke-7"/><path d="M105 305L279 0" id="Stroke-9"/><path d="M132 305L279 0" id="Stroke-11"/><path d="M159 305L279 0" id="Stroke-13"/><path d="M185 305L278 0" id="Stroke-15"/><path d="M212 305L278 0" id="Stroke-17"/><path d="M239 305L278 0" id="Stroke-19"/><path d="M266 305L278 0" id="Stroke-21"/><path d="M290 305L278 0" id="Stroke-23"/><path d="M317 305L278 0" id="Stroke-25"/><path d="M344 305L278 0" id="Stroke-27"/><path d="M371 305L278 0" id="Stroke-29"/><path d="M398 305L278 0" id="Stroke-31"/><path d="M425 305L278 0" id="Stroke-33"/><path d="M452 305L278 0" id="Stroke-35"/><path d="M479 305L278 0" id="Stroke-37"/><path d="M506 305L278 0" id="Stroke-39"/><path d="M532 305L278 0" id="Stroke-41"/><path d="M556 305L277 0" id="Stroke-43"/></g></g></g><g id="Group-8" transform="translate(55 105)"><g id="Oval-3-Copy" transform="translate(9 51)"><mask id="mask-5" fill="#fff"><use xlink:href="#path-4"/></mask><circle fill="url(#radialGradient-6)" fill-rule="nonzero" mask="url(#mask-5)" cx="55.5" cy="41.5" r="40.5"/><rect id="Rectangle-8" fill="#027F5A" fill-rule="nonzero" style="mix-blend-mode:multiply" opacity=".624" filter="url(#filter-7)" mask="url(#mask-5)" x="21" y="48" width="70" height="41" rx="20.5"/></g><g id="Oval-3" fill-rule="nonzero"><use fill="#000" fill-opacity="1" filter="url(#filter-9)" xlink:href="#path-8"/><use fill="url(#radialGradient-6)" xlink:href="#path-8"/></g><g id="Oval-3-Copy-8" fill-rule="nonzero"><use fill="#000" fill-opacity="1" filter="url(#filter-11)" xlink:href="#path-10"/><use fill="url(#radialGradient-6)" xlink:href="#path-10"/></g></g></g></g></g></svg>