<svg width="25" height="21" viewBox="0 0 25 21" version="1.1" xmlns="http://www.w3.org/2000/svg"><g id="Page-1" stroke="none" stroke-width="1" fill="none" fill-rule="evenodd"><g id="Contact" transform="translate(-155 -888)" fill="#039571" fill-rule="nonzero"><path d="M180 890.405c-.92.408-1.908.684-2.946.808a5.145 5.145 0 0 0 2.255-2.838 10.268 10.268 0 0 1-3.257 1.245 5.129 5.129 0 0 0-8.74 4.678 14.561 14.561 0 0 1-10.571-5.36 5.105 5.105 0 0 0-.695 2.58c0 1.779.906 3.349 2.282 4.268a5.108 5.108 0 0 1-2.323-.641v.064a5.132 5.132 0 0 0 4.114 5.03 5.139 5.139 0 0 1-2.317.088 5.134 5.134 0 0 0 4.792 3.561 10.29 10.29 0 0 1-6.37 2.196c-.414 0-.823-.024-1.224-.072a14.516 14.516 0 0 0 7.862 2.305c9.434 0 14.593-7.816 14.593-14.593 0-.223-.005-.444-.014-.664a10.42 10.42 0 0 0 2.559-2.655z" id="Path"/></g></g></svg>