<svg width="222" height="222" viewBox="0 0 222 222" version="1.1" xmlns="http://www.w3.org/2000/svg" xmlns:xlink="http://www.w3.org/1999/xlink"><defs><linearGradient x1="37.498%" y1="-8.404%" x2="110.606%" y2="123.464%" id="linearGradient-1"><stop stop-color="#027F5A" stop-opacity="0" offset="0%"/><stop stop-color="#027F5A" offset="100%"/></linearGradient><linearGradient x1="38.982%" y1="-5.728%" x2="110.606%" y2="123.464%" id="linearGradient-2"><stop stop-color="#027F5A" offset="0%"/><stop stop-color="#024D36" offset="100%"/></linearGradient><path id="path-3" d="M0 0h80.705v80.705H0z"/><radialGradient cx="100%" cy="50%" fx="100%" fy="50%" r="100%" id="radialGradient-5"><stop stop-color="#05B693" offset="0%"/><stop stop-color="#027F5A" offset="100%"/></radialGradient></defs><g id="Page-1" stroke="none" stroke-width="1" fill="none" fill-rule="evenodd"><g id="Home" transform="translate(-251 -1604)"><g id="Group-6" transform="translate(251 1604)"><g id="Group-35" stroke="#027F5A"><g id="Group-4"><path d="M221.5 111c0 61.027-49.473 110.5-110.5 110.5S.5 172.027.5 111 49.973.5 111 .5 221.5 49.973 221.5 111z" id="Stroke-1"/><path d="M219.469 111c0 57.213-51.256 108.469-108.47 108.469C53.788 219.469 2.533 168.213 2.533 111 2.532 53.787 53.787 2.531 111 2.531S219.469 53.787 219.469 111z" id="Stroke-3"/><path d="M217.438 111c0 53.399-53.038 106.438-106.438 106.438C57.601 217.438 4.561 164.399 4.561 111S57.602 4.562 111 4.562c53.4 0 106.438 53.039 106.438 106.438z" id="Stroke-5"/><path d="M215.406 111c0 49.585-54.82 104.406-104.406 104.406C61.415 215.406 6.594 160.585 6.594 111 6.594 61.415 61.415 6.594 111 6.594c49.585 0 104.406 54.821 104.406 104.406z" id="Stroke-7"/><path d="M213.375 111c0 45.771-56.604 102.375-102.375 102.375S8.625 156.771 8.625 111 65.229 8.625 111 8.625 213.375 65.229 213.375 111z" id="Stroke-9"/><path d="M211.344 111c0 41.956-58.388 100.344-100.344 100.344-41.956 0-100.343-58.388-100.343-100.344C10.657 69.043 69.044 10.656 111 10.656S211.344 69.043 211.344 111z" id="Stroke-11"/><path d="M209.313 111c0 38.143-60.17 98.313-98.313 98.313-38.142 0-98.313-60.17-98.313-98.313 0-38.142 60.17-98.313 98.313-98.313S209.313 72.858 209.313 111z" id="Stroke-13"/><path d="M207.281 111c0 34.328-61.953 96.281-96.28 96.281-34.329 0-96.282-61.953-96.282-96.281S76.672 14.719 111 14.719 207.281 76.672 207.281 111z" id="Stroke-15"/><path d="M205.25 111c0 30.514-63.736 94.25-94.25 94.25-30.514 0-94.25-63.736-94.25-94.25 0-30.514 63.736-94.25 94.25-94.25 30.514 0 94.25 63.736 94.25 94.25z" id="Stroke-17"/><path d="M203.219 111c0 26.699-65.52 92.219-92.22 92.219-26.698 0-92.217-65.52-92.217-92.219 0-26.7 65.519-92.219 92.218-92.219 26.699 0 92.219 65.519 92.219 92.219z" id="Stroke-19"/><path d="M201.188 111c0 22.886-67.302 90.188-90.188 90.188-22.885 0-90.188-67.302-90.188-90.188 0-22.885 67.303-90.188 90.188-90.188 22.886 0 90.188 67.303 90.188 90.188z" id="Stroke-21"/><path d="M199.156 111c0 19.071-69.085 88.156-88.156 88.156-19.072 0-88.156-69.085-88.156-88.156 0-19.071 69.084-88.156 88.156-88.156 19.071 0 88.156 69.085 88.156 88.156z" id="Stroke-23"/><path d="M197.125 111c0 15.257-70.868 86.125-86.125 86.125-15.257 0-86.125-70.868-86.125-86.125 0-15.257 70.868-86.125 86.125-86.125 15.257 0 86.125 70.868 86.125 86.125z" id="Stroke-25"/><path d="M195.094 111c0 11.442-72.651 84.094-84.094 84.094-11.443 0-84.093-72.652-84.093-84.094 0-11.443 72.65-84.094 84.093-84.094 11.443 0 84.094 72.651 84.094 84.094z" id="Stroke-27"/><path d="M193.063 111c0 7.629-74.434 82.063-82.063 82.063-7.629 0-82.063-74.434-82.063-82.063 0-7.628 74.434-82.063 82.063-82.063 7.629 0 82.063 74.435 82.063 82.063z" id="Stroke-29"/><path d="M191.031 111c0 3.814-76.217 80.031-80.03 80.031-3.816 0-80.032-76.217-80.032-80.031 0-3.814 76.216-80.031 80.031-80.031 3.814 0 80.031 76.217 80.031 80.031z" id="Stroke-31"/><path id="Stroke-33" d="M189 111l-78 78-78-78 78-78z"/></g></g><g id="Group-5" transform="translate(54 54)"><path id="Rectangle-7" fill="url(#linearGradient-1)" fill-rule="nonzero" transform="rotate(-135 57.5 57.5)" d="M17 17h81v81H17z"/><path id="Rectangle-7" fill="url(#linearGradient-1)" fill-rule="nonzero" transform="rotate(-135 58 58)" d="M30 30h56v56H30z"/><path id="Rectangle-7" fill="url(#linearGradient-2)" fill-rule="nonzero" opacity=".422" transform="rotate(-135 57.5 57.5)" d="M42 42h31v31H42z"/><g id="Oval-3-Copy" transform="rotate(45 27.772 71.228)"><mask id="mask-4" fill="#fff"><use xlink:href="#path-3"/></mask><circle fill="url(#radialGradient-5)" fill-rule="nonzero" mask="url(#mask-4)" cx="39.651" cy="64.915" r="28.422"/></g></g></g></g></g></svg>